<!-- Generated by IcoMoon.io -->
<svg version="1.1" xmlns="http://www.w3.org/2000/svg" width="32" height="32" viewBox="0 0 32 32">
<title>Facebook</title>
<path fill="#f53838" d="M23.256 10.087c0 4.182-3.39 7.572-7.572 7.572s-7.572-3.39-7.572-7.572c0-4.182 3.39-7.572 7.572-7.572s7.572 3.39 7.572 7.572z"></path>
<path fill="#fff" d="M15.684 2.515c-4.182 0-7.572 3.39-7.572 7.572s3.39 7.572 7.572 7.572c4.182 0 7.572-3.39 7.572-7.572s-3.39-7.572-7.572-7.572zM17.478 7.748h-1.138c-0.135 0-0.285 0.177-0.285 0.413v0.822h1.424l-0.215 1.172h-1.208v3.518h-1.343v-3.518h-1.219v-1.172h1.219v-0.689c0-0.989 0.686-1.793 1.628-1.793h1.138v1.247z"></path>
</svg>
