<!-- Generated by IcoMoon.io -->
<svg version="1.1" xmlns="http://www.w3.org/2000/svg" width="32" height="32" viewBox="0 0 32 32">
<title>Instagram</title>
<path fill="#f53838" d="M23.346 10.087c0 4.182-3.39 7.572-7.572 7.572s-7.572-3.39-7.572-7.572c0-4.182 3.39-7.572 7.572-7.572s7.572 3.39 7.572 7.572z"></path>
<path fill="#fff" d="M18.141 10.087c0 0.628-0.249 1.229-0.693 1.673s-1.046 0.693-1.673 0.693c-0.628 0-1.229-0.249-1.673-0.693s-0.693-1.046-0.693-1.673c0-0.135 0.014-0.267 0.039-0.394h-0.827v3.153c0 0.219 0.177 0.397 0.397 0.397h5.517c0.105-0 0.206-0.042 0.28-0.117s0.116-0.175 0.116-0.28v-3.153h-0.827c0.024 0.128 0.039 0.259 0.039 0.394zM15.775 11.665c0.207-0 0.412-0.041 0.604-0.12s0.365-0.196 0.512-0.342c0.146-0.147 0.263-0.321 0.342-0.512s0.12-0.397 0.12-0.604c-0-0.207-0.041-0.412-0.12-0.604s-0.196-0.365-0.342-0.512c-0.147-0.146-0.321-0.263-0.512-0.342s-0.397-0.12-0.604-0.12c-0.418 0-0.82 0.166-1.116 0.462s-0.462 0.697-0.462 1.116 0.166 0.82 0.462 1.116c0.296 0.296 0.697 0.462 1.116 0.462zM17.668 8.431h0.946c0.063 0 0.123-0.025 0.168-0.069s0.070-0.105 0.070-0.167v-0.946c0-0.063-0.025-0.123-0.070-0.168s-0.105-0.069-0.168-0.069h-0.946c-0.063 0-0.123 0.025-0.168 0.069s-0.070 0.105-0.070 0.168v0.946c0.001 0.13 0.107 0.237 0.237 0.237zM15.775 2.515c-2.008 0-3.934 0.798-5.354 2.218s-2.218 3.346-2.218 5.354c0 2.008 0.798 3.934 2.218 5.354s3.346 2.218 5.354 2.218c0.994 0 1.979-0.196 2.898-0.576s1.753-0.938 2.457-1.641c0.703-0.703 1.261-1.538 1.641-2.456s0.576-1.903 0.576-2.898-0.196-1.979-0.576-2.898c-0.381-0.919-0.938-1.753-1.641-2.456s-1.538-1.261-2.457-1.641c-0.919-0.381-1.903-0.576-2.898-0.576zM19.718 13.154c0 0.482-0.394 0.876-0.876 0.876h-6.135c-0.482 0-0.876-0.394-0.876-0.876v-6.135c0-0.482 0.394-0.876 0.876-0.876h6.135c0.482 0 0.876 0.394 0.876 0.876v6.135z"></path>
</svg>
