<!-- Generated by IcoMoon.io -->
<svg version="1.1" xmlns="http://www.w3.org/2000/svg" width="32" height="32" viewBox="0 0 32 32">
<title>Twitter</title>
<path fill="#f53838" d="M23.527 10.087c0 4.182-3.39 7.572-7.572 7.572s-7.572-3.39-7.572-7.572c0-4.182 3.39-7.572 7.572-7.572s7.572 3.39 7.572 7.572z"></path>
<path fill="#fff" d="M15.955 2.515c-4.182 0-7.572 3.39-7.572 7.572s3.39 7.572 7.572 7.572c4.182 0 7.572-3.39 7.572-7.572s-3.39-7.572-7.572-7.572zM19.035 8.718c0.003 0.065 0.004 0.129 0.004 0.192 0 1.972-1.499 4.244-4.243 4.244-0.811 0.001-1.604-0.231-2.286-0.67 0.116 0.014 0.235 0.020 0.356 0.020 0.699 0 1.342-0.237 1.852-0.638-0.311-0.006-0.612-0.109-0.862-0.295s-0.435-0.444-0.531-0.74c0.223 0.042 0.453 0.034 0.673-0.026-0.338-0.068-0.641-0.251-0.859-0.518s-0.337-0.6-0.337-0.945v-0.018c0.201 0.111 0.431 0.179 0.676 0.187-0.316-0.211-0.54-0.534-0.626-0.905s-0.027-0.759 0.165-1.088c0.375 0.461 0.842 0.837 1.371 1.106s1.109 0.423 1.702 0.453c-0.075-0.32-0.043-0.656 0.092-0.956s0.366-0.546 0.655-0.701c0.29-0.155 0.623-0.21 0.947-0.157s0.622 0.213 0.846 0.453c0.334-0.066 0.654-0.189 0.946-0.362-0.111 0.346-0.344 0.639-0.655 0.826 0.296-0.036 0.584-0.115 0.857-0.236-0.2 0.3-0.452 0.561-0.744 0.772z"></path>
</svg>
